<svg width="16" height="16" viewBox="0 0 24 24" fill="none" xmlns="http://www.w3.org/2000/svg">
<path d="M8.17 13.293C7.413 13.528 6.906 13.898 6.572 14.282C6.889 14.002 7.321 13.745 7.9 13.581C8.491 13.413 8.995 13.414 9.412 13.495V13.189C8.956 13.156 8.409 13.182 8.17 13.293ZM6.537 10.553L3.665 11.309C3.665 11.309 3.718 11.403 3.814 11.582L6.249 10.84C6.249 10.84 6.215 11.285 5.914 11.682C6.482 11.254 6.537 10.553 6.537 10.553ZM8.94 17.301C4.9 18.389 2.762 13.706 2.114 11.276C1.818 10.154 1.682 9.304 1.65 8.756C1.646 8.699 1.648 8.651 1.652 8.607C1.442 8.619 1.342 8.728 1.362 9.043C1.397 9.591 1.533 10.441 1.827 11.563C2.475 13.994 4.612 18.677 8.653 17.588C9.532 17.351 10.193 16.92 10.691 16.369C10.232 16.782 9.66 17.117 8.94 17.301ZM9.7 7.687V7.974H11.285C11.252 7.872 11.219 7.781 11.186 7.687H9.7Z" fill="#2D4552"/>
<path d="M11.639 10.055C12.351 10.258 12.729 10.757 12.928 11.199L13.722 11.425C13.722 11.425 13.616 9.877 12.214 9.48C10.904 9.108 10.099 10.207 9.997 10.349C10.382 10.078 10.942 9.857 11.639 10.055ZM17.965 11.247C16.644 10.873 15.843 11.994 15.752 12.125C16.133 11.857 16.69 11.638 17.39 11.838C18.102 12.042 18.479 12.538 18.678 12.983L19.474 13.211C19.474 13.211 19.364 11.662 17.965 11.247ZM17.116 15.288L10.563 13.439C10.563 13.439 10.636 13.802 10.911 14.272L16.478 15.828C16.935 15.563 17.116 15.288 17.116 15.288ZM12.592 19.266C7.357 17.863 7.99 11.193 8.837 8.032C9.186 6.729 9.544 5.761 9.842 5.112C9.664 5.076 9.517 5.169 9.372 5.465C9.056 6.105 8.613 7.207 8.22 8.627C7.371 11.788 6.738 18.458 11.971 19.861C14.484 20.502 16.406 19.55 17.84 17.919C16.497 19.115 14.743 19.841 12.592 19.266Z" fill="#2D4552"/>
<path d="M9.7 15.738V14.392L5.96 15.452C5.96 15.452 6.236 13.846 8.17 13.293C8.781 13.125 9.285 13.127 9.7 13.207V7.687H11.571C11.378 7.057 11.191 6.571 10.994 6.234C10.731 5.677 10.45 6.047 9.813 6.58C9.364 6.955 8.228 7.756 6.52 8.22C4.812 8.684 3.431 8.565 2.851 8.455C2.04 8.314 1.609 8.143 1.65 8.756C1.683 9.304 1.819 10.154 2.114 11.276C2.762 13.706 4.9 18.389 8.94 17.301C10 17.016 10.741 16.454 11.258 15.738H9.7ZM3.665 11.309L6.537 10.553C6.537 10.553 6.453 11.657 5.378 11.941C4.3 12.224 3.665 11.309 3.665 11.309Z" fill="#E2574C"/>
<path d="M20.507 7.751C19.76 7.881 17.97 8.042 15.757 7.451C13.543 6.862 12.074 5.821 11.493 5.334C10.669 4.642 10.304 4.163 9.95 4.889C9.632 5.526 9.228 6.632 8.837 8.032C7.99 11.193 7.357 17.863 12.592 19.266C17.816 20.663 20.612 14.575 21.459 11.414C21.769 9.995 21.901 8.85 21.948 8.138C21.999 7.331 21.573 7.558 20.507 7.751ZM9.987 10.407C9.987 10.407 10.814 9.071 12.214 9.48C13.616 9.878 13.722 11.426 13.722 11.426L9.987 10.407ZM13.403 16.143C10.944 15.402 10.563 13.44 10.563 13.44L17.116 15.288C17.116 15.285 15.842 16.875 13.403 16.143ZM15.729 12.075C15.729 12.075 16.55 10.745 17.965 11.247C19.364 11.663 19.474 13.211 19.474 13.211L15.729 12.075Z" fill="#2EAD33"/>
<path d="M8.393 14.762L5.96 15.452C5.96 15.452 6.224 13.946 8.016 13.35L6.639 8.182L6.52 8.22C4.812 8.684 3.431 8.565 2.851 8.455C2.04 8.314 1.609 8.143 1.65 8.756C1.683 9.304 1.819 10.154 2.114 11.276C2.762 13.706 4.9 18.389 8.94 17.301L9.059 17.263L8.393 14.762ZM3.665 11.309L6.537 10.553C6.537 10.553 6.453 11.657 5.378 11.941C4.3 12.224 3.665 11.309 3.665 11.309Z" fill="#D65348"/>
<path d="M13.516 16.138L13.403 16.143C10.944 15.402 10.563 13.44 10.563 13.44L13.973 14.392L15.778 7.457L15.757 7.451C13.543 6.862 12.074 5.821 11.493 5.334C10.669 4.642 10.304 4.163 9.95 4.889C9.632 5.526 9.228 6.632 8.837 8.032C7.99 11.193 7.357 17.863 12.592 19.266L12.699 19.29L13.516 16.138ZM9.987 10.407C9.987 10.407 10.814 9.071 12.214 9.48C13.616 9.878 13.722 11.426 13.722 11.426L9.987 10.407Z" fill="#1D8D22"/>
<path d="M8.517 14.727L7.863 14.912C8.02 15.781 8.301 16.615 8.717 17.357C8.807 17.341 8.895 17.329 9 17.301C9.138 17.267 9.268 17.226 9.396 17.183C9.022 16.4 8.706 15.587 8.517 14.727ZM8.22 8.627C7.927 9.858 7.627 11.663 7.707 13.464C7.857 13.402 8.013 13.342 8.17 13.293L8.263 13.266C8.102 11.336 8.479 9.375 8.837 8.032C8.888 7.693 8.939 7.379 8.99 7.085C8.916 7.178 8.836 7.274 8.743 7.372C8.706 7.746 8.667 8.155 8.22 8.627Z" fill="#C04B41"/>
</svg>
